 <svg  version="1.0" xmlns="http://www.w3.org/2000/svg"  width="300.000000pt" height="300.000000pt" viewBox="0 0 300.000000 300.000000"  preserveAspectRatio="xMidYMid meet">  <g transform="translate(0.000000,300.000000) scale(0.100000,-0.100000)" fill="#ffffff" stroke="none"> <path d="M1483 2654 c-38 -31 -95 -83 -128 -115 -94 -91 -125 -95 -204 -23 -64 57 -75 46 -69 -78 3 -57 1 -116 -4 -133 -4 -16 -44 -73 -89 -125 -72 -85 -129 -173 -129 -199 0 -5 30 -23 68 -41 113 -53 174 -127 188 -228 5 -43 4 -53 -10 -58 -32 -12 -116 18 -187 68 -39 27 -73 48 -75 45 -10 -10 29 -124 68 -199 35 -69 126 -178 147 -178 5 0 19 16 32 35 65 95 152 60 224 -90 58 -121 66 -237 19 -276 -22 -18 -70 -13 -110 11 -19 12 -37 20 -40 18 -7 -8 35 -134 71 -213 36 -81 119 -207 159 -244 l25 -24 12 29 c81 213 85 276 31 539 -43 212 -54 240 -118 315 -191 224 -203 531 -27 702 52 51 189 128 228 128 59 0 208 -90 264 -160 99 -123 123 -282 70 -456 -11 -36 -48 -105 -93 -172 -40 -61 -79 -131 -85 -156 -23 -92 -43 -362 -48 -662 -6 -310 2 -564 17 -564 9 0 10 5 56 205 46 201 89 312 148 382 l26 31 -34 6 c-42 8 -81 38 -104 79 -13 25 -17 55 -16 137 1 89 6 119 33 200 36 105 89 210 129 253 19 20 35 27 63 27 41 0 73 -29 110 -101 11 -22 23 -39 27 -39 11 0 125 192 158 266 45 100 74 184 65 184 -5 0 -27 -15 -49 -33 -80 -67 -138 -98 -196 -104 l-56 -6 0 50 c0 103 72 201 206 279 24 14 44 28 44 30 0 11 -40 67 -119 164 -46 58 -89 111 -95 119 -6 8 -11 61 -11 123 -1 87 -4 111 -17 125 -16 15 -21 14 -77 -20 -70 -44 -99 -46 -132 -11 -56 61 -261 214 -285 214 -8 0 -44 -25 -81 -56z"/> <path d="M1494 1984 c-107 -119 -103 -103 -48 -187 64 -96 103 -174 110 -220 12 -69 30 -55 77 58 14 33 44 91 66 130 49 84 52 117 13 171 -34 47 -120 124 -137 124 -7 0 -44 -34 -81 -76z"/> </g> </svg> 